<svg xmlns="http://www.w3.org/2000/svg" version="1.1" xmlns:xlink="http://www.w3.org/1999/xlink" xmlns:svgjs="http://svgjs.dev/svgjs" width="1500" height="1500" viewBox="0 0 1500 1500"><g transform="matrix(1,0,0,1,-0.323615160350073,-0.3236151603499593)"><svg viewBox="0 0 343 343" data-background-color="#ffffff" preserveAspectRatio="xMidYMid meet" height="1500" width="1500" xmlns="http://www.w3.org/2000/svg" xmlns:xlink="http://www.w3.org/1999/xlink"><g id="tight-bounds" transform="matrix(1,0,0,1,0.0740000000000407,0.07400000000001228)"><svg viewBox="0 0 342.85155851775386 342.85155851775386" height="342.85155851775386" width="342.85155851775386"><g><svg></svg></g><g><svg viewBox="0 0 342.85155851775386 342.85155851775386" height="342.85155851775386" width="342.85155851775386"><g><path d="M0 171.426c0-94.676 76.75-171.426 171.426-171.426 94.676 0 171.426 76.75 171.426 171.426 0 94.676-76.75 171.426-171.426 171.426-94.676 0-171.426-76.75-171.426-171.426zM171.426 336.273c91.043 0 164.848-73.805 164.847-164.847 0-91.043-73.805-164.848-164.847-164.848-91.043 0-164.848 73.805-164.848 164.848 0 91.043 73.805 164.848 164.848 164.847z" data-fill-palette-color="tertiary" fill="#e09f05" stroke="transparent"></path><ellipse rx="164.56874808852186" ry="164.56874808852186" cx="171.42577925887693" cy="171.42577925887693" fill="#e09f05" stroke="transparent" stroke-width="0" fill-opacity="1" data-fill-palette-color="tertiary"></ellipse></g><g transform="matrix(1,0,0,1,64.84655864529837,134.95409240738996)"><svg viewBox="0 0 213.1584412271571 72.9433737029739" height="72.9433737029739" width="213.1584412271571"><g><svg viewBox="0 0 213.1584412271571 72.9433737029739" height="72.9433737029739" width="213.1584412271571"><g><svg viewBox="0 0 213.1584412271571 72.9433737029739" height="72.9433737029739" width="213.1584412271571"><g id="textblocktransform"><svg viewBox="0 0 213.1584412271571 72.9433737029739" height="72.9433737029739" width="213.1584412271571" id="textblock"><g><svg viewBox="0 0 213.1584412271571 72.9433737029739" height="72.9433737029739" width="213.1584412271571"><g transform="matrix(1,0,0,1,0,0)"><svg width="213.1584412271571" viewBox="0.4 -34 139.673333333325 47.8" height="72.9433737029739" data-palette-color="#ffffff"><path d="M11.55 0.5L11.55 0.5Q10.95 0.5 10.33 0.3 9.7 0.1 9.3-0.65 8.9-1.4 8.9-2.95L8.9-2.95Q8.9-4.05 9.08-5.65 9.25-7.25 9.55-9.1L9.55-9.1Q9.95-11.6 10.23-14.38 10.5-17.15 10.5-20.05L10.5-20.05Q10.5-22.4 10.28-24.13 10.05-25.85 9.7-26.8L9.7-26.8Q7.8-26.75 6.1-26.55 4.4-26.35 2.65-25.9L2.65-25.9Q2.2-25.85 1.88-25.78 1.55-25.7 1.25-25.7L1.25-25.7Q0.8-25.7 0.6-25.88 0.4-26.05 0.4-26.75L0.4-26.75Q0.4-27.6 0.65-28.53 0.9-29.45 1.4-30.1L1.4-30.1Q1.9-30.8 2.58-31.13 3.25-31.45 4.05-31.55L4.05-31.55Q5.3-31.7 7.25-31.83 9.2-31.95 11.53-32.05 13.85-32.15 16.1-32.15L16.1-32.15Q19.75-32.15 21.33-32.1 22.9-32.05 23.45-31.95L23.45-31.95Q24.15-31.85 24.43-31.53 24.7-31.2 24.7-30.5L24.7-30.5Q24.7-29.15 23.5-27.8L23.5-27.8Q23-27.2 22.45-26.88 21.9-26.55 21-26.6L21-26.6Q20.2-26.7 18.65-26.75 17.1-26.8 15.2-26.8L15.2-26.8Q15.15-25.05 14.93-22.73 14.7-20.4 14.4-18.05L14.4-18.05Q14.1-15.75 13.9-13.45 13.7-11.15 13.7-9.25L13.7-9.25Q13.7-7.5 14.03-6.18 14.35-4.85 15.35-3.9L15.35-3.9Q16.05-3.2 16.05-2.4L16.05-2.4Q16.05-1.3 14.8-0.4 13.55 0.5 11.55 0.5ZM27 0.65L27 0.65Q24 0.65 22.17-1.23 20.35-3.1 20.35-6.6L20.35-6.6Q20.35-9.1 21.32-11.58 22.3-14.05 24.15-16.05 26-18.05 28.6-19.25 31.2-20.45 34.45-20.45L34.45-20.45Q37.45-20.45 39.57-19.43 41.7-18.4 41.7-16.65L41.7-16.65Q41.7-16.2 41.6-15.48 41.5-14.75 41.35-14.3L41.35-14.3Q41.2-13.9 40.92-13.58 40.65-13.25 40.2-13.25L40.2-13.25Q40-13.25 39.45-13.4L39.45-13.4Q39.25-12.35 39.15-11.35 39.05-10.35 39.05-9.35L39.05-9.35Q39.05-7.45 39.62-5.98 40.2-4.5 41.9-4.15L41.9-4.15Q42.35-4.05 42.62-3.85 42.9-3.65 42.9-3L42.9-3Q42.9-2.45 42.62-1.6 42.35-0.75 41.57-0.08 40.8 0.6 39.35 0.6L39.35 0.6Q37.4 0.6 36.35-0.83 35.3-2.25 35.3-4.9L35.3-4.9Q33.95-2.45 31.87-0.9 29.8 0.65 27 0.65ZM28.6-4.55L28.6-4.55Q30.6-4.55 32.12-5.8 33.65-7.05 34.5-8.95L34.5-8.95Q35.05-10.15 35.35-11.58 35.65-13 35.75-14.4L35.75-14.4Q34.9-14.8 33.8-15.05 32.7-15.3 31.5-15.3L31.5-15.3Q28.45-15.3 26.47-13.5 24.5-11.7 24.5-9L24.5-9Q24.5-7 25.6-5.78 26.7-4.55 28.6-4.55ZM52.59 0.65L52.59 0.65Q50.74 0.65 49.14 0.1 47.55-0.45 46.55-1.45 45.55-2.45 45.55-3.85L45.55-3.85Q45.55-4.6 45.92-5.28 46.3-5.95 47.14-5.95L47.14-5.95Q47.59-5.95 48.09-5.7L48.09-5.7Q48.99-5.2 50.39-4.78 51.8-4.35 53.34-4.35L53.34-4.35Q55.09-4.35 56.45-4.85 57.8-5.35 57.8-6.25L57.8-6.25Q57.8-6.95 56.77-7.25 55.74-7.55 53.34-7.9L53.34-7.9Q51.7-8.2 50.14-8.6 48.59-9 47.59-9.98 46.59-10.95 46.59-12.85L46.59-12.85Q46.59-14.7 47.62-16.43 48.64-18.15 50.7-19.3 52.74-20.45 55.7-20.45L55.7-20.45Q57.24-20.45 58.7-20.1 60.14-19.75 61.09-19.05 62.05-18.35 62.05-17.3L62.05-17.3Q62.05-16.4 61.42-15.65 60.8-14.9 59.97-14.43 59.14-13.95 58.59-13.95L58.59-13.95Q58.2-13.95 57.64-14.5L57.64-14.5Q56.8-15.2 55.77-15.48 54.74-15.75 53.74-15.75L53.74-15.75Q52.24-15.75 51.32-15.3 50.39-14.85 50.39-14.15L50.39-14.15Q50.39-13.5 51.17-13.1 51.95-12.7 53.09-12.53 54.24-12.35 55.3-12.2L55.3-12.2Q58.2-11.8 59.89-10.83 61.59-9.85 61.59-7.4L61.59-7.4Q61.59-5.5 60.52-3.63 59.45-1.75 57.42-0.55 55.39 0.65 52.59 0.65ZM67.79 0.55L67.79 0.55Q67.24 0.55 66.74 0.23 66.24-0.1 66.34-0.65L66.34-0.65Q67.09-4.65 67.62-8.78 68.14-12.9 68.14-17.1L68.14-17.1Q68.14-20.8 67.89-23.8 67.64-26.8 66.29-29.55L66.29-29.55Q66.04-30.1 65.89-30.5 65.74-30.9 65.74-31.25L65.74-31.25Q65.74-32.2 66.84-33.1 67.94-34 69.19-34L69.19-34Q70.99-34 71.64-31.8 72.29-29.6 72.29-25.3L72.29-25.3Q72.29-20.15 71.69-16.32 71.09-12.5 70.64-10.5L70.64-10.5 70.84-10.4Q71.84-12.85 73.39-15.13 74.94-17.4 76.97-18.9 78.99-20.4 81.39-20.4L81.39-20.4Q83.74-20.4 85.02-19 86.29-17.6 86.29-15.65L86.29-15.65Q86.29-13.35 84.64-11.55 82.99-9.75 80.34-8.55L80.34-8.55Q80.99-6.85 82.19-5.88 83.39-4.9 85.24-4.9L85.24-4.9Q85.84-4.9 86.24-5L86.24-5Q86.89-5.15 86.89-3.75L86.89-3.75Q86.89-2.95 86.59-1.95 86.29-0.95 85.42-0.23 84.54 0.5 82.79 0.5L82.79 0.5Q80.44 0.5 78.97-0.88 77.49-2.25 76.67-4.28 75.84-6.3 75.39-8.3L75.39-8.3Q74.99-10.15 76.64-10.25L76.64-10.25Q78.39-10.45 79.59-11.3 80.79-12.15 80.79-13.55L80.79-13.55Q80.79-15.15 79.24-15.15L79.24-15.15Q78.24-15.15 77.22-14.43 76.19-13.7 75.32-12.7 74.44-11.7 73.89-10.75L73.89-10.75Q73.14-9.45 72.59-8.2 72.04-6.95 71.69-5.7L71.69-5.7 71.69-3.7Q71.69-1.85 70.62-0.65 69.54 0.55 67.79 0.55ZM95.09-24.85L95.09-24.85Q93.69-24.9 92.84-25.7 91.99-26.5 91.99-27.95L91.99-27.95Q92.04-29.5 93.04-30.48 94.04-31.45 95.59-31.4L95.59-31.4Q97.04-31.35 97.87-30.55 98.69-29.75 98.64-28.3L98.64-28.3Q98.59-26.8 97.64-25.83 96.69-24.85 95.09-24.85ZM95.14 0.5L95.14 0.5Q93.64 0.5 92.79-0.33 91.94-1.15 91.94-3.15L91.94-3.15Q91.94-4.3 92.17-5.4 92.39-6.5 92.69-7.55L92.69-7.55Q93.04-8.65 93.27-9.8 93.49-10.95 93.49-12.25L93.49-12.25Q93.49-13.15 93.24-13.98 92.99-14.8 92.14-15.2L92.14-15.2Q91.49-15.55 91.02-15.93 90.54-16.3 90.54-16.9L90.54-16.9Q90.54-17.6 91.19-18.4 91.84-19.2 92.92-19.78 93.99-20.35 95.14-20.35L95.14-20.35Q96.39-20.35 96.97-19.7 97.54-19.05 97.74-18.05 97.94-17.05 97.94-16L97.94-16Q97.94-14.4 97.69-12.88 97.44-11.35 97.19-10.05L97.19-10.05Q96.99-9.1 96.89-8.3 96.79-7.5 96.79-6.8L96.79-6.8Q96.79-5.55 97.39-4.93 97.99-4.3 99.09-3.75L99.09-3.75Q99.54-3.5 99.54-3L99.54-3Q99.54-2.6 99.14-1.75 98.74-0.9 97.77-0.2 96.79 0.5 95.14 0.5ZM106.24 9.6L106.24 9.6Q105.29 9.6 104.79 9.13 104.29 8.65 104.34 7.4L104.34 7.4Q104.34 6.65 104.46 4.73 104.59 2.8 104.81 0.18 105.04-2.45 105.31-5.3 105.59-8.15 105.84-10.8 106.09-13.45 106.29-15.35L106.29-15.35Q105.79-15.3 105.34-15.28 104.89-15.25 104.44-15.15L104.44-15.15Q103.94-15.05 103.69-15.05L103.69-15.05Q103.09-15.05 102.89-15.78 102.69-16.5 102.69-17.15L102.69-17.15Q102.69-17.9 102.91-18.4 103.14-18.9 103.89-19.2L103.89-19.2Q104.34-19.4 105.06-19.55 105.79-19.7 106.59-19.8L106.59-19.8Q106.84-22.75 107.36-25.4 107.89-28.05 108.99-29.9L108.99-29.9Q110.14-31.8 112.11-32.9 114.09-34 116.14-34L116.14-34Q117.64-34 118.96-33.43 120.29-32.85 121.11-31.83 121.94-30.8 121.94-29.5L121.94-29.5Q121.94-28.55 121.46-27.95 120.99-27.35 120.39-27.35L120.39-27.35Q120.14-27.35 119.84-27.45 119.54-27.55 119.24-27.65L119.24-27.65Q118.69-27.9 117.86-28.08 117.04-28.25 116.09-28.25L116.09-28.25Q114.14-28.25 113.01-27.2 111.89-26.15 111.31-24.33 110.74-22.5 110.39-20.1L110.39-20.1Q111.44-20.2 112.64-20.3 113.84-20.4 114.59-20.4L114.59-20.4Q115.79-20.4 116.46-20.03 117.14-19.65 117.14-18.6L117.14-18.6Q117.14-17.95 116.91-17.07 116.69-16.2 116.24-15.53 115.79-14.85 115.19-14.85L115.19-14.85Q114.94-14.85 114.34-15L114.34-15Q113.69-15.1 112.64-15.25 111.59-15.4 109.99-15.45L109.99-15.45Q109.79-13.3 109.66-10.68 109.54-8.05 109.54-5.15L109.54-5.15Q109.54-2 109.74 0.3 109.94 2.6 110.14 4.05L110.14 4.05Q110.24 4.7 110.29 5.2 110.34 5.7 110.34 6L110.34 6Q110.34 7.45 109.64 8.22 108.94 9 107.99 9.3 107.04 9.6 106.24 9.6ZM120.94 13.8L120.94 13.8Q118.89 13.8 117.41 12.7 115.94 11.6 115.94 9.75L115.94 9.75Q115.94 8.3 116.81 7.28 117.69 6.25 118.99 6.25L118.99 6.25Q119.59 6.25 119.84 6.45 120.09 6.65 120.24 6.9L120.24 6.9Q120.64 7.55 121.16 8.03 121.69 8.5 122.59 8.5L122.59 8.5Q123.79 8.5 124.91 7.65 126.04 6.8 126.99 5.7L126.99 5.7Q127.84 4.75 129.04 2.98 130.24 1.2 131.44-1.05L131.44-1.05Q130.34-0.1 129.39 0.33 128.44 0.75 127.59 0.75L127.59 0.75Q126.54 0.75 125.54-0.03 124.54-0.8 124.29-2.95L124.29-2.95Q124.14-4.6 123.71-6.6 123.29-8.6 122.66-10.48 122.04-12.35 121.14-13.65L121.14-13.65Q120.79-14.25 120.34-14.55 119.89-14.85 119.04-14.95L119.04-14.95Q118.44-15 118.26-15.3 118.09-15.6 118.09-16.25L118.09-16.25Q118.09-18.05 119.09-19.15 120.09-20.25 121.79-20.25L121.79-20.25Q123.84-20.25 124.74-18.68 125.64-17.1 126.29-14.85L126.29-14.85Q126.54-13.95 126.81-12.48 127.09-11 127.31-9.3 127.54-7.6 127.64-6.05L127.64-6.05Q127.69-4.95 128.89-4.95L128.89-4.95Q130.49-4.95 131.94-5.95 133.39-6.95 134.31-8.55 135.24-10.15 135.24-11.9L135.24-11.9Q135.24-12.9 134.99-13.7 134.74-14.5 134.14-15.1L134.14-15.1Q133.64-15.7 133.34-16.07 133.04-16.45 133.04-16.95L133.04-16.95Q133.04-17.8 133.84-18.55 134.64-19.3 135.76-19.8 136.89-20.3 137.74-20.3L137.74-20.3Q139.24-20.3 139.74-18.88 140.24-17.45 139.99-15.75L139.99-15.75Q139.69-13.4 138.79-10.2 137.89-7 136.46-3.5 135.04 0 133.21 3.28 131.39 6.55 129.34 9L129.34 9Q127.59 11.15 125.44 12.48 123.29 13.8 120.94 13.8Z" opacity="1" transform="matrix(1,0,0,1,0,0)" fill="#ffffff" class="wordmark-text-0" data-fill-palette-color="quaternary" id="text-0"></path></svg></g></svg></g></svg></g></svg></g></svg></g></svg></g></svg></g><defs></defs></svg><rect width="342.85155851775386" height="342.85155851775386" fill="none" stroke="none" visibility="hidden"></rect></g></svg></g></svg>